HIERARCHY
ROOT Hips
{
	OFFSET 0.000000 0.000000 0.000000
	CHANNELS 6 Xposition Yposition Zposition Zrotation Yrotation Xrotation 
	JOINT LowerBack
	{
		OFFSET 0.000000 0.000000 0.000000
		CHANNELS 3 Zrotation Yrotation Xrotation
		JOINT Spine
		{
			OFFSET 0.028270 2.035590 -0.193380
			CHANNELS 3 Zrotation Yrotation Xrotation
			JOINT Spine1
			{
				OFFSET 0.056720 2.048850 -0.042750
				CHANNELS 3 Zrotation Yrotation Xrotation
				JOINT Neck
				{
					OFFSET 0.000000 0.000000 0.000000
					CHANNELS 3 Zrotation Yrotation Xrotation
					JOINT Neck1
					{
						OFFSET -0.054170 1.746240 0.172020
						CHANNELS 3 Zrotation Yrotation Xrotation
						JOINT Head
						{
							OFFSET 0.104070 1.761360 -0.123970
							CHANNELS 3 Zrotation Yrotation Xrotation
							End Site
							{
								OFFSET 0.000000 0.000000 0.000000
							}
						}
					}
				}
				JOINT LeftShoulder
				{
					OFFSET 0.000000 0.000000 0.000000
					CHANNELS 3 Zrotation Yrotation Xrotation
					JOINT LeftArm
					{
						OFFSET 3.362410 1.200890 -0.311210
						CHANNELS 3 Zrotation Yrotation Xrotation
						JOINT LeftForeArm
						{
							OFFSET 4.983000 -0.000000 -0.000000
							CHANNELS 3 Zrotation Yrotation Xrotation
							JOINT LeftHand
							{
								OFFSET 3.483560 -0.000000 -0.000000
								CHANNELS 3 Zrotation Yrotation Xrotation
								JOINT LeftFingerBase
								{
									OFFSET 0.000000 0.000000 0.000000
									CHANNELS 3 Zrotation Yrotation Xrotation
									JOINT LeftHandIndex1
									{
										OFFSET 0.715260 -0.000000 -0.000000
										CHANNELS 3 Zrotation Yrotation Xrotation
										End Site
										{
											OFFSET 0.000000 0.000000 0.000000
										}
									}
								}
								JOINT LThumb
								{
									OFFSET 0.000000 0.000000 0.000000
									CHANNELS 3 Zrotation Yrotation Xrotation
									End Site
									{
										OFFSET 0.000000 0.000000 0.000000
									}
								}
							}
						}
					}
				}
				JOINT RightShoulder
				{
					OFFSET 0.000000 0.000000 0.000000
					CHANNELS 3 Zrotation Yrotation Xrotation
					JOINT RightArm
					{
						OFFSET -3.136600 1.374050 -0.404650
						CHANNELS 3 Zrotation Yrotation Xrotation
						JOINT RightForeArm
						{
							OFFSET -5.241900 -0.000000 -0.000000
							CHANNELS 3 Zrotation Yrotation Xrotation
							JOINT RightHand
							{
								OFFSET -3.444170 -0.000000 -0.000000
								CHANNELS 3 Zrotation Yrotation Xrotation
								JOINT RightFingerBase
								{
									OFFSET 0.000000 0.000000 0.000000
									CHANNELS 3 Zrotation Yrotation Xrotation
									JOINT RightHandIndex1
									{
										OFFSET -0.622530 -0.000000 -0.000000
										CHANNELS 3 Zrotation Yrotation Xrotation
										End Site
										{
											OFFSET 0.000000 0.000000 0.000000
										}
									}
								}
								JOINT RThumb
								{
									OFFSET 0.000000 0.000000 0.000000
									CHANNELS 3 Zrotation Yrotation Xrotation
									End Site
									{
										OFFSET 0.000000 0.000000 0.000000
									}
								}
							}
						}
					}
				}
			}
		}
	}
}
}
MOTION
Frames: 6
Frame Time: 0.008333
2.863587 16.613762 0.784303 18.719925 -60.353943 14.415242 -1.087048 3.697564 2.928607 1.201153 3.964791 -2.260378 5.381364 3.848488 -0.456693 -11.013653 -7.353416 -12.015927 2.228627 0.284552 -1.582584 0.000000 0.000000 0.000000 7.192535 10.947003 -1.188696 -79.677434 5.764335 16.661504 176.787050 -54.962780 179.872064 9.908520 -4.541422 -0.455090 0.045044 0.719743 0.000000 0.000000 0.000000 0.000000 0.000000 0.000000 0.000000 -30.615429 2.405718 5.245002 -20.926306 30.966807 -113.003033 -3.667438 -1.419984 -0.120260 -23.271896 15.645460 -3.485583 0.611462 -0.752389 0.000000 0.000000 0.000000 0.000000 0.000000 0.000000 0.000000 
2.866772 16.612152 0.779680 18.517888 -59.845644 14.706656 -1.195524 3.696376 2.946137 1.204519 3.977547 -2.229900 5.494771 3.855280 -0.280824 -11.025934 -7.627216 -12.101298 2.329267 0.295141 -1.612340 0.000000 0.000000 0.000000 7.325872 11.429054 -1.187816 -80.229041 5.833333 16.324705 176.696048 -55.146593 179.871987 9.684443 -4.702956 -0.458026 0.065153 0.724647 0.000000 0.000000 0.000000 0.000000 0.000000 0.000000 0.000000 -30.955345 2.073697 5.253949 -21.298118 29.868142 -113.274536 -3.729502 -1.732078 -0.121988 -24.827361 14.696931 -3.501947 0.670870 -0.722374 -0.000000 0.000000 0.000000 0.000000 0.000000 0.000000 0.000000 
2.872075 16.610724 0.776016 18.283427 -59.377356 15.028472 -1.266096 3.695173 2.992890 1.208085 3.987694 -2.194610 5.573276 3.860142 -0.111023 -10.967976 -7.982556 -12.174865 2.418157 0.304687 -1.640151 0.000000 0.000000 0.000000 7.434581 11.914850 -1.174600 -80.798222 5.868466 15.979281 176.613376 -55.329304 179.871624 9.490651 -4.852838 -0.460846 0.083147 0.729919 0.000000 0.000000 0.000000 0.000000 0.000000 0.000000 0.000000 -31.190793 1.667919 5.218856 -21.626087 28.984696 -113.559275 -3.788049 -1.648061 -0.124868 -26.031954 13.925745 -3.487629 0.717834 -0.701699 0.000000 0.000000 0.000000 0.000000 0.000000 0.000000 0.000000 
2.879546 16.609814 0.773558 18.014191 -58.955384 15.381753 -1.291688 3.688912 3.066716 1.215626 3.990221 -2.150687 5.627511 3.856705 0.072971 -10.854890 -8.435634 -12.252621 2.494831 0.313522 -1.670600 0.000000 0.000000 0.000000 7.484450 12.413616 -1.158999 -81.371178 5.871815 15.621729 176.536809 -55.501004 179.870933 9.343354 -4.985008 -0.464050 0.098534 0.735020 0.000000 0.000000 0.000000 0.000000 0.000000 0.000000 0.000000 -31.292967 1.165661 5.199318 -22.290235 28.214687 -114.597155 -3.848739 -1.708744 -0.126281 -26.761217 13.978422 -3.602915 0.745120 -0.704169 0.000000 0.000000 0.000000 0.000000 0.000000 0.000000 0.000000 
2.888899 16.609917 0.772299 17.725566 -58.582505 15.761914 -1.235760 3.687660 3.180548 1.251484 3.993640 -2.095742 5.726792 3.851706 0.260321 -10.857049 -9.093247 -12.309467 2.626617 0.326824 -1.697828 0.000000 0.000000 0.000000 7.302017 12.921628 -1.135092 -81.851174 5.806908 15.262920 176.487855 -55.669379 179.869870 9.274094 -5.071634 -0.467621 0.108131 0.740109 0.000000 0.000000 0.000000 0.000000 0.000000 0.000000 0.000000 -31.721098 0.508194 5.095015 -22.531604 27.818532 -116.938185 -3.932031 -1.145654 -0.129147 -26.670261 14.830056 -3.809408 0.741402 -0.738607 0.000000 0.000000 0.000000 0.000000 0.000000 0.000000 0.000000 
2.900429 16.610255 0.772411 17.409462 -58.253112 16.171215 -1.143645 3.689475 3.315216 1.276145 3.997150 -2.040929 5.745921 3.848922 0.430935 -10.735322 -9.790820 -12.352087 2.715705 0.336303 -1.720747 0.000000 0.000000 0.000000 7.147721 13.395081 -1.104149 -82.333303 5.728048 14.909942 176.446063 -55.823620 179.868423 9.266331 -5.138046 -0.472671 0.114222 0.745039 0.000000 0.000000 0.000000 0.000000 0.000000 0.000000 0.000000 -31.874141 -0.181670 4.950914 -22.867288 27.613840 -118.730010 -3.982141 -0.181348 -0.133226 -26.117900 15.680216 -3.944233 0.723988 -0.779904 -0.000000 0.000000 0.000000 0.000000 0.000000 0.000000 0.000000 
